<?xml version="1.0" encoding="UTF-8"?>
<svg id="Layer_2" data-name="Layer 2" xmlns="http://www.w3.org/2000/svg" viewBox="0 0 22.91 22.93">
  <defs>
    <style>
      .cls-1 {
        fill: #bd9c55;
      }
    </style>
  </defs>
  <g id="Layer_2-2" data-name="Layer 2">
    <g>
      <path class="cls-1" d="M12.6,5.08c-.09.55.11,1.01-.16,1.5-.12.21-.42.48-.69.36-.33-.15-.56-.47-.8-.77.23-.33.43-.63.38-1.05-.08-.83-.56-1.69-1.52-1.95.45.74.49,1.49-.15,2.05-.22.19-.44.29-.71.22-.21-.05-.62-.2-.56-.56.07-.45.41-.98.16-1.46-.67-1.31-1.94-2.13-3.4-2.51-.89-.23-1.77.21-2.74.12C3.46.43,4.59.23,5.67.05c.51-.09.53.29.82.36l3.51.86c1.12.27,1.93.85,2.79,1.59,1.73,1.49,2.4,3.88,1.31,5.97-.55,1.06-1.68,1.8-2.84,1.93-1.56.17-2.91-.81-3.04-2.33-.06-.73.18-1.34.73-1.76.47-.36,1.21-.47,1.81-.15.55.3.75.95.5,1.49-.27.57-.81.78-1.55.55.45.89,1.45.85,2.16.33,1.14-.83,1.46-2.52.73-3.82Z"/>
      <path class="cls-1" d="M4.85,21.92c.88-1.26-.18-2.58-1.65-3.4.46.79.89,1.55.64,2.42-.24.8-1.11,1.18-1.91,1.19-1.12.02-1.92-.83-1.88-1.95.02-.53.33-1.01.76-1.19.46-.2,1.13-.12,1.36.33.15.31.06.69-.07.88-.16.24-.54.29-.92.17.07.5.42.67.81.68.32,0,.66-.2.85-.56.31-.59.07-1.29-.33-1.82-.76-1.01-1.28-2.03-1.7-3.26-.21.73-.01,1.29-.17,1.99.38-.02.67.04.76.31s.1.65-.24.76c-.36.11-.72.08-1.12.03-.03-2.19-.07-4.32.04-6.57.24.78.4,1.53.76,2.29.99,2.03,3.35,3.74,5.04,2.63.62-.41,1.47-.41,2,.11.13.68-.37,1.15-.97,1.42-.86.25-1.74.09-2.65-.21.37.62,1.4.52,1.98,1.14.45.81.2,1.89-.37,2.61-.53.67-1.46,1.12-2.38.98-.39-.06-.68-.34-.48-.73.67.46,1.39.39,1.84-.25Z"/>
      <path class="cls-1" d="M4.04,9.17c-.01.45-1.5.42-1.42,2.07.03.71.36,1.21,1.01,1.5.35.16.71.51,1.21.21-.57-.18-.94-.57-1.01-1.09-.08-.56.16-1.15.68-1.48.88-.56,2.01-.46,2.84.15s1.2,1.51,1.14,2.65c-.09,1.65-1.48,2.78-3.14,2.82-1.18.03-2.21-.29-3.09-1.1C-.05,12.8.04,9.82.06,6.77l.78-.23c-.17-.53-.49-1.37-.06-1.88.52-.61,1.37-.86,2.11-1.15-1.04-.46-1.89-.99-1.41-1.76,2.1-.55,4.42.06,5.68,1.77.84,1.15.82,2.75,0,3.85-.61.81-1.63,1.12-2.49.68-.45-.23-.73-.68-.72-1.11,0-.49.3-1,.81-1.13.36-.09.7,0,.95.19.28.2.25.61.23,1.01.63-.29.74-1.06.49-1.71-.36-.91-1.44-1.47-2.47-1.29.45.38.95.59.9,1.2l-.96.53-.9.11c.62.37.61,1.06.52,1.62-1.28-.09-2.27.88-2.16,2.14.17-.3.3-.53.54-.78.55-.58,1.46-.65,2.01-.05.1.11.14.28.14.38Z"/>
      <path class="cls-1" d="M22.06.87l-.68-.83c-.41.58.92,1.2.07,2.26-.36.46-.94.55-1.53.25-.28-.14-.49-.38-.54-.59-.08-.36-.13-.7.3-.93-.1.5.07.81.45.95.34.13.81-.16.71-.59l-.44-.64c.16-.21.09-.72-.2-.72h-2.92c-.03.4.16.75.22,1.09-.37.31-.64-.92-1.21-1.03-1.44-.26-2.9-.03-3.29,1.22-.12.36.06.71.27.86.17.12.72.15.75-.1.06-.6.33-1.04.86-1.16.47-.1,1.02.07,1.08.67-.35-.19-.66-.2-1.02-.04-.42.17-.89,1.31-.42,2,.19.28.53.5.97.56,1.16.18,2.27-.52,2.51-1.67.12-.58.12-1.13-.13-1.64l1,.03c-.6.64-.11,1.38-.72,2.37-.49.8-.38,1.96.23,1.96.27,0,.77-.47,1.06-.87.17.42.63.48.95.29l1.7-.99c.51-.3.74-.81.74-1.35,0-.5-.32-.85-.77-1.36h.01Z"/>
      <path class="cls-1" d="M22.25,0s0,.03-.02.04l.68.83v-.87h-.66Z"/>
    </g>
  </g>
</svg>