<?xml version="1.0" encoding="UTF-8"?>
<svg id="Layer_2" data-name="Layer 2" xmlns="http://www.w3.org/2000/svg" viewBox="0 0 694.67 694.97">
  <defs>
    <style>
      .cls-1 {
        fill: #dbdbdb;
      }
    </style>
  </defs>
  <g id="Layer_2-2" data-name="Layer 2">
    <g>
      <path class="cls-1" d="M325.05,694.28C147.77,683.12,6.17,538.55,0,361.22v-28.44C6.83,153.81,150.75,10.27,327.43.54c209.68-11.55,381.49,163.46,366.3,372.32-13.7,188.41-177.35,333.45-368.69,321.42ZM5.82,363.76c6.5,143.33,104.12,265.7,234.67,308.07,143.85,46.68,295.47-5.37,381.69-122.31,88.99-120.69,87.99-284.49.16-403.9C561.64,63.07,467.38,12.37,367.26,6.6,178.97-4.27,16.85,138.79,5.65,330.37l.17,33.38Z"/>
      <path class="cls-1" d="M353.1,674.05c-192.98,3.54-346.59-160.23-331.91-351.55C33.53,161.57,162.68,32.95,323.94,21.59c184.63-13.01,343.11,129.99,349.71,314.34,6.49,181.31-137.46,334.76-320.56,338.11ZM331.86,39.83C160.75,48.33,30.34,194.97,39.3,363.46c9,169.23,153.61,300.02,322.95,291.64,169.86-8.4,301.41-153.66,292.56-323.8-8.71-167.6-152.41-299.94-322.94-291.47Z"/>
      <path class="cls-1" d="M281.88,329.87c-24.34-3.56-31.3,16.66-44.29,14.7l7.48-26.52,36.62-.04.12-48.92c.02-7.52-16.32-18.62-7.33-18.62l94.09-.06c12.6,0,23.95,6.64,30.85,15.78,12.64,16.72,8.55,37.54-8.85,50.7l85.02.14c3.37,10.63-9.47,7.39-9.45,24.44l.08,124.81c0,9.32,9.97,9.77,10.48,16.76.15,2.02-4.65,3.11-7.14,4.03-27.11,9.98-53.34,19.63-82.44,22.72-33.49,3.55-66.19-.57-97.66-11.24-64.66-21.93-107.4-78.2-113.41-146-5.62-63.36,23.36-122.86,78.49-155.08,49.18-28.75,107.97-32.98,161.11-12,9.73,3.84,16.38,3.61,28.02-.77l-.3,40.49c-4.06.65-7.71-1.4-9.69-4.11-10.91-14.95-26.21-24.29-43.76-30.04-38.9-12.75-80.46-6.35-114.33,16.73-75.01,51.13-85.34,163.85-22.95,233.23,36.21,40.27,89.18,60.34,143.24,54.55,21.49-2.3,38.08-12.4,38.07-34.2l-.1-130.22-29.42-.02c14.18,12.6,23.06,29.4,21.44,49.02-2.43,29.41-26.82,53.85-57.13,53.97l-95.27.39c-1.53-6,2.44-9.82,8.05-12.92l.39-91.67ZM356.28,316.77c14.67-2.13,22.56-15.96,22.26-27.75-.3-11.86-7.89-25.56-21.53-25.87l-45.93-1.03.12,55.94c15.66-.51,30.28.85,45.08-1.3ZM381.87,410.81c14.37-13.3,17.87-33.53,10.94-51.47-5.76-14.89-21.59-28.87-40.18-29.08l-41.55-.46.12,92.81,41.09-.32c10.11-.08,21.66-4.16,29.58-11.49Z"/>
      <path class="cls-1" d="M556.31,478.3l-21.9,4.84c4.68-18.62,27.04-6.13,29.97-19.8l-15.77-6.32,6.39-10.38c2.48,2.61,5.68,6.14,7.68,7.23l32.4,17.78-12.96,21.92c-4.17,7.06-14.29,8.07-19.87,4.74-7.15-4.26-8.96-11.63-5.94-20.01ZM578.49,490.35c3.35-3.49,6.6-9.14,8.43-12.94l-19.35-11.04c-2.62,4.29-5.04,8.57-6.39,13.98-.82,3.28,3.17,9.55,6.02,10.85,2.53,1.16,9.36,1.18,11.3-.85Z"/>
      <path class="cls-1" d="M461.53,149.39c-18.62-3.47-8.82-23.85-21.51-28.32l-5.92,16.27-10.23-4.7,9.91-18.02,10.05-25.24,24.27,11.93c7.15,3.52,8.86,13.63,5.35,19.99-3.21,5.81-10.07,8.67-18.83,6.83l6.92,21.25ZM454.31,122.77c3.22,1.24,9.78-2.51,11.38-5.4,1.6-2.9,1.37-11.65-1.56-13.18l-13.13-6.85-9.63,20.44,12.94,5Z"/>
      <path class="cls-1" d="M356.74,119.68l-28.85.48c.72-1.82,2.63-5.66,2.62-7.48l-.37-39.4,24.26-.73c2.96-.09,8.38,3.42,9.53,5.98,1.58,3.52-.65,9.55-3.63,12.56,5.19,2.88,9.68,8.66,9.34,14.86-.3,5.46-5.87,13.62-12.89,13.74ZM351.26,89.33c2.41-.09,5.95-5.11,5.44-7.22-.51-2.11-4.44-5.51-6.67-5.54l-10.58-.1v13.28s11.81-.42,11.81-.42ZM354.72,114.85c3.85-.39,6.95-8.86,6.05-12.16-1.01-3.69-6.11-8.59-9.82-8.7l-11.55-.32-.3,22.78,15.63-1.6Z"/>
      <path class="cls-1" d="M150.02,229.59l-5.87,9.11-12.94-10.72-26.22-16.01,15.51-22.65c3.71-5.41,14.42-5.13,17.91-3.24,8.12,4.68,9.43,12.1,6.14,21.4l21.51-3.23c-5.05,17.34-24.38,4.59-30.81,16.69l14.78,8.64ZM132.57,218.67l6.75-12.43c2.2-4.06-1.93-11.21-5.73-12.94-3.34-1.52-10.9-.21-13,2.69l-7.18,9.91,19.16,12.78Z"/>
      <path class="cls-1" d="M256.27,136.74l-11.29-36.82c-.5-1.62-3.14-4.72-4.91-7.05l11.83-4.06,3.7,19.33,20.27-6.16-7.6-18.45,10.11-2.94,11.79,38.71c.43,1.4,4.96,4.94,3.95,5.32l-6.76,2.51-4.74,1.76c-1.09.41.1-4.47-.26-5.66l-5.41-17.64-19.08,6.18c2.29,7.97,4.97,14.95,8.84,22.57l-10.42,2.4Z"/>
      <path class="cls-1" d="M101.61,463.54c-1.72.62-5.22,3.83-6.23,4.68l-4.46-10.95,18.97-5.2-7.65-19.95-17.68,8.78-3.56-9.76,29.14-10.51,14.53-7.46,4.01,10.44-22.65,7.27,7.24,19.23,22.1-9.91,2.9,10.13-36.67,13.21Z"/>
      <path class="cls-1" d="M534.95,172.61l-14.23,12.9-.94,13.69-7.34-12.96c-4.8-1.84-12.48-4.93-15.67-9.46-4.09-5.83-3.55-12.55.64-17.79,3.41-4.26,11.26-4.86,16.72-3.64,1.56-4.56,4.45-10.5,7.62-11.95,3.72-1.71,10.61-.04,13.37,2.76,3.39,3.44,5.97,10.12,1.9,14.42-3.75,3.96-10.85,3.64-16.58,2.2l-.64,17.86c5.64-2.24,7.32-6.55,8.26-13.22l6.88,5.2ZM533.67,152.64c.1-1.77-1.95-4.72-3.54-5.13-1.27-.33-5.12,1.04-5.6,2.24l-3.5,8.83c5.42,2.73,12.43-2.3,12.64-5.95ZM513.2,158.95c-6.64.44-11.55,5.18-12.08,11.82-.36,4.46,5.4,9.69,11.38,11.1l.71-22.92Z"/>
      <path class="cls-1" d="M204.77,582.44l-5.42-3.87c-.88-.63,3.45-2.8,4.08-3.74l15.49-22.8-19.52,6.54-1.73-22.31-16.24,23.49c-.62.89-1.21,5.65-2.08,5.07l-4.93-3.28c-1.13-.75,2.07-3.44,3.37-4.42l20.6-31.41,7.4,4.62,1.43,20.82,19.55-7.04,6.17,5.33c1.05.91-4.12,3.36-4.91,4.53l-17.16,25.31c-.67.98-1.86,4.68-2.11,5.55s-3.18-1.8-4-2.39Z"/>
      <path class="cls-1" d="M346.69,619.91l-22.5.53,2.04-20.31-1.1-23.42,19.49.71c11.85.43,19.87,9.59,20.51,20.05.61,9.95-5.9,22.15-18.45,22.44ZM350.9,584.87c-3.68-2.93-10.29-3.49-16.02-3.31l-.37,34.68c6.24.2,12.86-.4,16.22-3.3,7.09-6.12,7.23-22.46.17-28.07Z"/>
      <path class="cls-1" d="M405.93,614.54c-14.13,3.94-26.59-2.98-29.67-15.91-3.16-13.28,5.71-25.15,20.11-27.56,12.94-2.17,24.06,4.4,26.97,16.84,2.72,11.6-4.16,22.94-17.42,26.64ZM414.77,591.59c-1.36-10.79-9.48-17.96-18.33-16.15-9.85,2.01-13.52,11.71-11.34,21.36,2.11,9.33,9.01,15.47,17.75,13.97,8.77-1.5,13.24-8.67,11.91-19.18Z"/>
      <path class="cls-1" d="M96.35,300.2c-3.13-.04-1.98-10.07,1.04-9.86l20.81,4.27c3.2,4.74,2.55,15.61.78,22.19-3.95,14.7-18.62,20.17-31.07,16.03-14.3-4.75-19.97-20.93-13.86-34.85l3.08-7.02c.65-1.47,4.8-.66,7.81.6-5.87,5.55-10,11.17-8.86,18.57,1.09,7.09,7.75,12.56,15.8,14.45,5.81,1.37,13.8.33,18-2.72,5.9-4.27,7.68-11.1,6.82-19.14l-20.35-2.52Z"/>
      <path class="cls-1" d="M176.16,194.91l-5.41,4.61c-7.23-10.22-13.33-17.62-22.03-24.41l-11.2-8.75c-.44-.07,4.86-5.03,7.21-5.35l30.63-4.22-14.55-13.66,4.8-4.45c.9-.83,1.93,2.51,2.37,4.33l26.52,26.88c1.69.7,4.61,2.42,3.72,3.22l-4.88,4.37-9.02-12.54-35.47,4.4,4.51,4.95c7.28,7.99,14.42,14.78,22.81,20.61Z"/>
      <path class="cls-1" d="M306.59,611.87c-.27,1.26,1.52,6.93.31,6.55l-7.77-2.45c1.48-1.86,6.05-10.68,3.8-13.41l-18.54-22.44-5.7,25.62-.87,6.19c-.21,1.52-4.85-.63-6.69-1.38-1.55-.64,1.58-3.74,3.01-5.16l6.83-36.73c2.82.89,7.56,2.92,9.13,4.79l15.66,18.66,3.16-17.52,7.06,2.09c1.14.34-2.76,3.71-3.01,4.92l-6.37,30.29Z"/>
      <path class="cls-1" d="M403.58,114.49l-20.04-4.59-6.65,10.96-6.07-1.43,33.77-43.12,12.51,53.42-12.69-2.81c2.26-2.81,2.29-11.73-.84-12.44ZM403.91,110.04l-4.6-20.14-13.05,17.04,17.65,3.1Z"/>
      <path class="cls-1" d="M599.84,328.33l.08-15.65-23.34,3.06,3.08,20.8c.14.92,1.99,3.64,2.61,4.33s-3.94.7-6.15.6l-3.96-34.92,36.63-3.2,10.34-3.37,3,32.69-4.28.91-.9-22.74-14.02,1.47,3.28,15.3-6.38.73Z"/>
      <path class="cls-1" d="M115.34,273.71l9.15,10.04c.38.42-1.2,3.97-1.68,3.66l-2.94-1.87-34.1-36.99,47-3.23,8.25-1.78-5.6,13.54c-2.2-3.33-11-4.38-12.36-1.23l-7.71,17.86ZM118.54,254.45l-20.82,1.64,15.43,15.27,5.39-16.91Z"/>
      <path class="cls-1" d="M74.26,382.96l4.09,20.5,13.3-2.42-4.23-14.95,6.73-1,.61,15.39,22.81-3.78-4.11-21.47c-.83-.78-3.73-3.47-2.79-3.64l6.14-1.11,6.35,36.09c-3.06-.41-7.41-.98-9.46-.62l-27.48,4.83-10.09,3.63-4.66-33.14c3.58-1.94,6.05-1.16,2.79,1.68Z"/>
      <path class="cls-1" d="M593.68,426.37l-3.08,15.54-6.09-2.59,5.72-14.54-21.52-6.83-6.39,19.26.25,4.86c.03.65-1.15.62-1.63.19-.76-.69-2.3-4.41-1.89-5.68l9.73-29.71,7.36,4.31,36.78,11.35-10.06,30.07-4.99-1.04c-.61-.13,2.93-2.24,3.12-2.84l5.7-18.49-13-3.88Z"/>
      <path class="cls-1" d="M556.3,256.65l9.56-9.23-9.47-18.54c-3-1.38-8.29-.18-13.06,1.86l-3.48-6.68,55.73-.89-34.11,43.4-5.17-9.92ZM581.49,227.38l-21.1.71,8.41,16.25,12.68-16.96Z"/>
      <path class="cls-1" d="M255.49,581.89l-12.03-7.41-7.99,18.52,16.19,7.04c.61.27,4.57.3,5.25.39s.59.89.17,1.35c-.68.76-4.69,2.47-5.59,2.11l-26.8-10.74,8.41-15.73,8.64-24.49,27.64,12.75-1.48,4.98c-.31,1.05-2.94-2.18-3.59-3.37l-15.15-6.47-4.37,10.87,13.35,3.8c.12-.29-1.77,4.27-2.64,6.39Z"/>
      <path class="cls-1" d="M242.15,143.65c-7.78,9.96-23.16,9.14-23.46,6.56l-.71-6.27c8.64,5.56,17.96,3.06,21.05-3.92.61-1.39.44-6.32-.84-7.07-1.27-.75-4.32-1.44-5.95-1.53l-20.21-1.13c-5.92-.33-8.94-9.95-7.59-14.5,3.85-12.93,20.44-12.17,21.43-10.01.58,1.26,2.14,4.71,1.75,3.86h-13.87c-3.28,0-5.44,10.32-2.01,11.45,11.14,3.67,25.26-3.38,31.54,6.87,2.44,3.99,2.45,11.13-1.13,15.71Z"/>
      <path class="cls-1" d="M439.44,604.57l4.53-44.68-17.22,9.1-.69-5.82,28.19-12.06-4.99,44.63,15.1-6.44c.72-.31,2.91-2.94,3.4-3.55s2.14,1.59,2.44,2.31c.44,1.08-.97,3.94-2.2,4.45l-28.58,12.04Z"/>
      <path class="cls-1" d="M502.71,557.83l-14.5,10.17c-2.04,1.43.53,8.17,3,10.95l-6.43,4.18-7.9-49.99,43.82,25.27-9.92,7.18c-1.38-2.2-5.56-6.96-8.08-7.76ZM498.61,554.98l-15.37-8.6,3.12,16.84,12.26-8.23Z"/>
      <path class="cls-1" d="M608.31,272.55l-31.5,9.66c-2.35.72-5.66,2.8-9.61,5.18l-3.44-10.7,41.43-11.98-4.57-13.58c-.69.05,3.37-1.03,3.72-.36l2.29,4.47,7.6,23.72c.61,1.91-1.33,6.33-2.46,7.3l-3.46-13.72Z"/>
      <path class="cls-1" d="M122.39,513.45l-18.77-29.56,3.22-3.64,6.66,11.75,32.27-20.54c.69-1.02,2.97-4.35,3.6-3.44l3.11,4.45c.68.97,4.03,4.27,2.91,4.73l-6.34,2.62-30.99,19.35,8.76,11.77c2.47-1.41-.81.46-4.44,2.52Z"/>
      <path class="cls-1" d="M613.98,360.65l-34.98-1.93-.42,17.56c3.23,3.35-.54,5.38-4.34,3.19l1.46-31.97,7.36,3,40.08,1.38-.66,11.68c-2.53-1-6.77-2.82-8.49-2.91Z"/>
      <path class="cls-1" d="M616.67,408.13c-1.38-.85-5.12-3.49-6.63-3.78l-33.5-6.49c-.95-.18-5.89,2.34-5.81,1.39l.46-6.03,1.5-6.74c.26-1.17,4.05,2.94,5.56,3.19l40.26,6.81-1.84,11.65Z"/>
      <path class="cls-1" d="M214.41,160.52c.45.55-4.86,4.29-7.42,5.43l-23.82-32.85c-.78-1.08-5.76-2.81-5.02-3.41l4.58-3.7,4.39-3.55c1.18-.96,2.08,4.66,3.18,6.12l24.11,31.96Z"/>
      <path class="cls-1" d="M165.7,516.53l4.51,17.03c-6.48-2.54-10.68-4.01-14.7-7.14-2.7-2.45-3.99-10.51-5.04-15.74l15.23,5.85Z"/>
      <path class="cls-1" d="M524.84,535.64l-5.23,1.75,3.73-15.9,14.38-7.47c.68,11.66-2.75,18.23-12.89,21.63Z"/>
    </g>
  </g>
</svg>