<?xml version="1.0" encoding="UTF-8"?>
<svg id="Layer_2" data-name="Layer 2" xmlns="http://www.w3.org/2000/svg" viewBox="0 0 900.54 473.72">
  <defs>
    <style>
      .cls-1 {
        fill: #bd9c55;
      }
    </style>
  </defs>
  <g id="Layer_2-2" data-name="Layer 2">
    <g id="eUHImL.tif">
      <g>
        <path class="cls-1" d="M107.27,251.72l.18-16.46,98.05.03c2.07,7.4-6.67,7.16-6.66,15.96l.05,87.91c0,7.47,7.23,7.13,7.04,13.51-.08,2.65-3.62,1.53-5.49,2.28-39.33,15.78-67.86,21.79-109.73,11.83C39.21,354.54,4.25,311.83.35,259.26c-3.37-45.4,17.51-87.75,57.62-109.87,32.57-17.96,70.5-20.14,105.23-6.59,6.71,2.62,11.87,3.37,19.97-.35l-.12,28.58c-6.49,3.54-7.92-9.91-27.44-19.45-26.99-13.19-58.04-10.58-83.44,5.58-55.22,35.13-62.79,119.79-15.16,169.08,45.56,47.15,118.48,40.27,118.65,15.89l.65-96.47-59.29.61c-2.27,2.47-4.7,7.31-9.75,5.45Z"/>
        <path class="cls-1" d="M429.43,301.13l-13.55-23.08-23.83-.3.12,42.01c.01,4.5,2.68,7.65,6.57,9.61.48.76.62,2.83.31,4.12l-35.62-.34c1.67-5.69,5.33-6.78,7.72-10.76v-127.92c-2.41-4.14-6.07-4.72-7.71-11.07l77.39.68c29.96.26,49.64,32.44,40.21,60.23-7.03,20.72-25.7,32.14-48.21,33.83,33.96,33.48,58.48,92.51,107.02,102.19,30.29,6.04,57.84-3.83,84.92-18.86-15.57,20.2-40.03,26.56-63.01,29.02-38.15,2.52-72.65-11.83-98.21-39.73-13.66-14.91-23.48-31.53-34.12-49.66ZM462.44,220.41c-3.79-17.89-17.44-30.32-35.23-30.37l-36.23-.09.02,81.19,31.51.26c26.74.22,45.58-24.31,39.93-50.99Z"/>
        <path class="cls-1" d="M900.54,332.95l-36.88.34,7.75-11.54.04-66.56-65.23-.06.24,67.62c2.52,3.69,6.15,5.3,7.33,10.69l-36.32-.3,7.84-11.42v-126.55s-7.86-11.42-7.86-11.42l36.55-.21-7.64,11.78-.07,52.66h65.06s-.2-52.89-.2-52.89l-7.38-11.44,36.4-.06-7.75,11.71-.06,124.67c.71,5.4,4.12,6.65,8.17,12.99Z"/>
        <path class="cls-1" d="M612.35,332.62l-23.1.75-78.89-120.44-.51,108.68,7.92,11.67-23.96-.02,7.81-11.67v-126.28s-7.8-11.67-7.8-11.67l23.91-.04,77.73,118.34.34-106.58-7.84-11.77,23.93.09-7.84,11.54.06,124.78c0,5.29,4.38,7.01,8.24,12.63Z"/>
        <path class="cls-1" d="M233.14,154.68l.03-139.87c-33.27-5.42-67.69-8.69-85.49,19.39-6.21,9.79-8.49,20.17-3.85,31.81,6.87,17.24,29.07,25.04,45.8,18.56,7.88-3.05,12.96-9.7,14.24-16.41,1.75-9.17-1.57-15.29-7.44-22.64,8.92,1.3,13.43,9.67,13.79,17.59.68,14.93-9.08,28.34-23.42,32.32-20.83,5.79-41.5-5.08-48.61-25.16s-.68-40.49,15.12-54.39C167.1,3.75,184.6-.68,203.29.08c25.2,1.02,49.02,6.04,73.56,11.54,23.12,5.18,56.78,11.81,72.71-2.62l1.73-1.57c.61-.55,2.73,1.85,1.77,2.94-24.54,27.87-66.34,12.99-104.55,7.12l.04,137.98,5.62,8.66-26.64.02,5.61-9.48Z"/>
        <path class="cls-1" d="M318.81,319.26l-11.2-25.9-66.5.05-12.95,29.86c1.65,2.95,6.31,6.05,4.37,10.26l-23.77-.13c-2.52-7,5.91-6.66,10.05-15.76l60.87-133.69c.49-1.07,5.33-1.3,5.84-.13l57.55,133.65c2.17,5.05,6.21,7.81,10.74,10.26l.43,5.77-40.4-.08c-1.66-6.44,7.18-9.04,4.97-14.16ZM305.28,282.23l-29.87-72.23-31.85,73.01,61.71-.78Z"/>
        <path class="cls-1" d="M676.13,318.65v-18.91c2.45-1.33,4.53,1.28,5.86,3.94,10.36,20.77,35.19,31.02,56.33,19.91,12.17-6.4,16.11-24.13,9.03-35.29-4.57-7.21-12.12-10.81-19.12-14.68l-31.96-17.68c-21.07-14.32-25.88-43.42-8.2-62.36,16.05-17.19,44.59-13.74,65.67-1.53-.09,7.19,1.91,13.39-1.58,20.72-7.01-10.48-13.4-18.61-24.11-22.33-10.27-3.56-21.74-1.79-28.62,5.85-6.92,7.68-10.09,20.53-3.78,29.67,4.77,6.9,12.51,10.41,19.64,14.13l30.46,15.89c14.97,7.81,22,23.47,20.27,40.5-1.49,14.61-11,28.73-26.58,34.84-21.29,8.34-46.12,3.24-63.3-12.68Z"/>
        <path class="cls-1" d="M252.87,473.61l-46.19-.16c-1.06-3.37,1.65-5.68,4.15-7.4l.26-81.95c-.64-2.83-4.84-4.36-5.01-9.39l49.96-.11c9.61-.02,16.93,6.68,19.26,14.79,2.62,9.12-1.84,17.61-10.35,22.87,15.79,6.46,23.19,21.02,20.47,35.6-2.87,15.37-16.22,25.82-32.54,25.76ZM246.61,410.59c8.34-.07,13.58-6.77,14.19-13.32.66-7.12-3.09-15.51-11.07-15.59l-22.93-.21.06,29.29,19.75-.16ZM254.86,465.15c12.53-4.16,16.83-16.89,14.61-27.95-2.16-10.81-11.19-19.64-23.1-19.64h-19.76s.18,49.18.18,49.18c9.58-.14,18.81,1.48,28.06-1.59Z"/>
        <path class="cls-1" d="M416.18,438.66c-2.57-3.2-9.77-1.49-12.6-.51l-.13,26.99c1.76,2.17,4.29,3.48,4.95,7.83l-24.55.41c-1.72-1.8.42-5.57,3.75-7.14l-.22-83.74c0-1.92-6.36-4.18-3.95-8.06l48.69.16c16.96.06,29.62,13.92,30.53,29.32.99,16.7-9.78,30.64-28.29,33.26l24.54,30.31c.83,1.02,3.35,1.07,4.16,1.43,8.62,3.83-15.65,8.69-22.86-.31l-24-29.95ZM420.28,430.64c13.42.25,23.44-8.21,25.79-19.48,2.41-11.55-2.34-24.46-14.52-28.31-9.06-2.86-18.77-1.67-28.16-1.14l-.04,48.61,16.93.32Z"/>
        <path class="cls-1" d="M661.85,332.88l-36.55.34,7.84-11.56v-126.44s-7.82-11.49-7.82-11.49l36.15-.12-7.81,11.61.06,124.77c0,5.41,4.47,6.82,8.12,12.9Z"/>
        <path class="cls-1" d="M347.68,146.56l-25.72.13c3.66-4.72,5.73-7.43,5.7-12.04l-.3-39.04-42.31.07.39,42.98,4.87,8.06-24.63.46c.5-3.83,2.97-5.19,4.89-8.03l-.11-82.91-5.12-8.64,24.82-.17c-.95,4.12-3.24,5.47-4.91,7.91l-.17,34.57,42.36.02-.11-35.24c-2.03-2.14-4.04-3.4-4.76-7.25l24.7.12c-1.01,3.77-3.14,4.97-5.06,7.37l-.14,81.28c0,4.02,1.99,5.48,5.61,10.34Z"/>
        <path class="cls-1" d="M346.19,447.01l-42.45-.22-8.36,18.59c1.33,2.76,2.64,4.45,3.24,8.01l-16.17.16c-2.34-4.86,3.64-5.48,4.56-7.57l40.51-92.02c.42-.95,3.93-2.33,4.33-1.37l37.82,91.18c1.33,3.2,6.41,3.47,7.04,9.27l-27.51.37,3.96-9.43-6.99-16.97ZM343.17,439.73l-17.79-42.53-18.84,42.53h36.63Z"/>
        <path class="cls-1" d="M399.04,90.51l-24.5-.64.03,51.68,43.12-.29,10.37-5.45c.15,3.75-1.01,7.41-2.86,11.41l-70,.02c.38-3.73,3.14-5.21,4.9-8.01l-.06-84.19c-1.86-2.38-4.25-3.61-5.05-7.59l64.92-.07,2.77,10.6c-4.53.88-6.95-3.96-10.06-4.6l-38.06-.5.19,31.07c7.47.39,17.68,1.65,24.95-.86,1.72-.6,4.24-5.89,6.3-2.88.65,4.58.31,10.56-.18,14.54-3.56.27-5.26-3.9-6.78-4.23Z"/>
      </g>
    </g>
  </g>
</svg>