<?xml version="1.0" encoding="UTF-8"?>
<svg id="Layer_2" data-name="Layer 2" xmlns="http://www.w3.org/2000/svg" viewBox="0 0 944.61 110.18">
  <defs>
    <style>
      .cls-1 {
        fill: #dbdbdb;
      }
    </style>
  </defs>
  <g id="Layer_2-2" data-name="Layer 2">
    <g>
      <path class="cls-1" d="M498.78,110.02c-32.62,2.19-52.15-18.31-66.97-44.93l-7.29-13.1h-12.13s.04,22.86.04,22.86l4.27,5.64-19.44.18,3.93-6.67.03-60.55c.3-3.89-1.44-6.2-3.88-10.31l37.28-.02c15.27,0,27.23,13.53,24.2,28.7-2.46,12.33-13.93,20.11-25.62,20.07l16.33,19.95c14.1,17.22,24.6,35.66,52.49,33.28,10.87-.93,19.47-5.15,30.09-10.25-8.07,10.44-21.02,14.32-33.36,15.15ZM447.74,23.92c-1.13-9.33-8.4-16.26-17.57-16.4l-17.75-.25v40.42s15.38,0,15.38,0c12.59,0,22-10.78,19.95-23.77Z"/>
      <path class="cls-1" d="M907.14,51.92l-10.95-.07.15,23.31,4.38,5.41-20.01.04,4.3-5.77V10.48c0-1.72-2-3.99-3.98-7.11l39.14-.08c13.33-.03,23.22,11.94,23.15,24.31-.07,13.07-9.78,23.35-23.55,24.02l17.4,22.14c1.54,1.96,4.77,3.77,7.45,5.73-5.19,2.05-14.39,2.22-18.25-2.77l-19.22-24.81ZM931.67,24.63c-.81-9.33-7.74-16.96-16.95-17.11l-18.48-.31v40.42s14.18.17,14.18.17c12.67.15,22.74-9.57,21.25-23.18Z"/>
      <path class="cls-1" d="M775.22,80.37l-39.83.19,3.85-5.85V8.95s-3.83-5.76-3.83-5.76l40.18.14c7.27.03,12.75,6.67,13.83,12.67,1.32,7.35-3.39,13.84-10.02,16.62,11.66,3.58,18.87,13.78,18.06,25.42-.76,10.93-9.69,22.27-22.23,22.33ZM768.24,31.63c6.67-.13,10.59-6.62,10.7-11.86.1-5.25-2.79-11.96-9.06-12.11l-19.43-.45v24.77s17.79-.36,17.79-.36ZM786.07,58.94c1.24-12.71-8.01-22.89-20.24-22.87l-15.37.04v40.47s17.94-.27,17.94-.27c9.58-.14,16.72-7.58,17.67-17.37Z"/>
      <path class="cls-1" d="M128.77,80.62l-19.51-.06,4.28-5.44.16-34.73-33.19-.02.06,34.61,4.41,5.62-20.04.02,4.4-5.71V8.8s-4.4-5.64-4.4-5.64h20.04s-4.36,5.58-4.36,5.58l-.16,27.53,33.17-.02-.02-27.17-4.4-5.93,19.89.02-4.18,5.66-.12,63.35c.57,3.05,1.25,3.87,3.95,8.44Z"/>
      <path class="cls-1" d="M685.75,80.62l-19.52-.05,4.37-5.39.12-34.78-33.18-.03.08,34.54,4.39,5.7h-20.09s4.47-5.65,4.47-5.65V8.74s-4.45-5.56-4.45-5.56l20.01-.02-4.3,5.64-.15,27.48,33.24-.02-.08-27.23-4.45-5.88,19.93.02-4.18,5.74-.13,63.27c.56,3.05,1.29,3.89,3.92,8.44Z"/>
      <path class="cls-1" d="M294.69,46.99c0-3.67-1.32-5.13-4.42-9.24l19.94-.19-4.29,5.67.17,31.73c-19.46,11.09-47.24,8.5-58.86-10.92-6.83-11.43-7.32-25.12-2.99-37.54,8.42-24.18,36.33-30.05,59.48-18.77.13,3.7.07,6.82-.65,10.76-6.77-8.48-13.76-12.61-23.24-12.22-8.43.36-16.62,5.02-20.98,13.36-7.18,13.75-7.29,30.75,0,44.46,5.01,9.42,14.73,14.79,25.12,13.26l10.65-1.57.07-28.8Z"/>
      <polygon class="cls-1" points="515.21 80.51 519.41 75.39 519.62 54.4 474.8 16.25 474.82 74.82 479.25 80.59 465.51 80.57 470.1 74.95 470.1 8.71 465.57 3.23 477.78 3.17 519.53 38.56 519.55 8.83 515.18 3.19 528.82 3.18 524.3 8.79 524.25 74.4 528.74 80.63 515.21 80.51"/>
      <path class="cls-1" d="M365.29,59.38h-34.89s-6.88,16.2-6.88,16.2l3.64,5.09-13.49-.2,5.37-5.86L352.19,0l30.72,73.92,6.13,6.62-21.12.08c1.35-2.72,3.52-5.73,2.87-7.36l-5.5-13.88ZM363.37,54.93l-15.01-36.53-16.08,36.82,31.09-.29Z"/>
      <path class="cls-1" d="M849.08,59.33l-34.81.08-5.23,11.94c-1.47,3.35-1.27,4.83,1.52,9.32l-12.59-.22c4.07-5.1,5.94-7.87,8.15-12.88L835.96,0l31.31,74.95c2.2,1.93,3.01,2.69,5.44,5.58l-21.04.08c1.48-2.81,3.6-5.78,2.92-7.48l-5.51-13.8ZM847.34,55.07l-15.25-36.46-15.87,36.49,31.12-.03Z"/>
      <path class="cls-1" d="M171.74,36.2l-18.95-.17v40.54s33.33-.18,33.33-.18c1.89-.01,4.87-3.01,8.12-4.33l-1.93,8.6-54.48-.05c1.01-2.37,1.88-3.34,3.69-5.06l.03-66.77-3.92-5.6,50.16-.11,2.5,8.69-8.27-4.46-29.24-.09-.02,24.71,18.76-.12,5.71-4.41-.03,12.62-5.45-3.81Z"/>
      <path class="cls-1" d="M601.89,78.91c-11.32,5.42-24.72,2.66-33.85-5.53-1.23-3.09-1.14-7.97.58-11.7,5.81,11.6,15.23,18.07,27.19,15.18,5.89-1.42,9.34-6,10.09-11.63.77-5.79-2.61-10.53-8.25-13.62l-18.84-10.32c-11.84-6.48-14.48-22.46-5.41-32.57,8.37-9.32,22.68-7.57,34.56-1.3.09,4.23.03,7.28-.83,11.12-4.81-5.95-7.75-10.21-14.02-11.9-5.17-1.39-10.67.07-13.64,3.82-3,3.78-4.71,9.81-1.72,14.28,2.07,3.09,6.05,5.37,9.36,7.09l16.07,8.35c7.45,3.87,11.4,11.62,11.05,19.6-.33,7.56-4.32,15.27-12.34,19.11Z"/>
      <path class="cls-1" d="M37.7,80.25l-18.95.27,4.12-5.92V7.2s-14.87.27-14.87.27c-1.95.04-4.9,2.71-8,4.32.19-2.76.8-5.32,1.9-8.67l52.95-.03,2.28,8.51c-3.47-1.27-6.43-4.18-8.65-4.2l-14.37-.18v65.96c-.01,1.59,1.14,2.97,3.6,7.07Z"/>
      <path class="cls-1" d="M557.44,80.55l-19.6.09,4.24-5.81.07-63.35c0-2.75-1.48-4.22-4.19-8.11l19.55-.3-4.34,5.39-.1,63.66c0,3.01,1.25,3.89,4.37,8.42Z"/>
    </g>
  </g>
</svg>