<?xml version="1.0" encoding="UTF-8"?>
<svg id="Layer_2" data-name="Layer 2" xmlns="http://www.w3.org/2000/svg" viewBox="0 0 870.46 578.93">
  <defs>
    <style>
      .cls-1 {
        fill: #dbdbdb;
      }
    </style>
  </defs>
  <g id="Layer_2-2" data-name="Layer 2">
    <g>
      <g>
        <g>
          <path class="cls-1" d="M459.63,505.41c-30.06,2.02-48.05-16.88-61.71-41.4l-6.72-12.07h-11.18s.04,21.07.04,21.07l3.94,5.2-17.92.16,3.63-6.15.03-55.8c.28-3.59-1.32-5.72-3.57-9.5l34.36-.02c14.07,0,25.09,12.47,22.3,26.44-2.27,11.36-12.84,18.53-23.61,18.5l15.05,18.38c12.99,15.87,22.67,32.86,48.37,30.67,10.02-.85,17.94-4.75,27.73-9.45-7.44,9.62-19.37,13.2-30.74,13.96ZM412.59,426.07c-1.04-8.6-7.74-14.99-16.19-15.11l-16.36-.23v37.24s14.17,0,14.17,0c11.6,0,20.28-9.94,18.38-21.9Z"/>
          <path class="cls-1" d="M835.93,451.87l-10.09-.06.14,21.48,4.03,4.99-18.44.03,3.96-5.32v-59.31c0-1.59-1.85-3.68-3.67-6.55l36.06-.08c12.29-.03,21.4,11,21.33,22.4-.07,12.05-9.02,21.51-21.7,22.13l16.04,20.4c1.42,1.81,4.39,3.48,6.86,5.28-4.78,1.88-13.26,2.04-16.82-2.55l-17.71-22.86ZM858.54,426.73c-.74-8.6-7.13-15.63-15.62-15.77l-17.03-.28v37.25s13.06.16,13.06.16c11.67.14,20.96-8.81,19.58-21.36Z"/>
          <path class="cls-1" d="M714.37,478.09l-36.7.17,3.54-5.39v-60.6s-3.53-5.31-3.53-5.31l37.02.13c6.7.02,11.75,6.15,12.74,11.68,1.22,6.77-3.12,12.75-9.24,15.32,10.74,3.3,17.39,12.7,16.64,23.42-.7,10.07-8.93,20.52-20.48,20.58ZM707.93,433.18c6.15-.12,9.76-6.1,9.86-10.93.09-4.84-2.57-11.02-8.34-11.16l-17.91-.41v22.82s16.4-.33,16.4-.33ZM724.37,458.34c1.14-11.72-7.38-21.1-18.65-21.07l-14.16.03v37.29s16.53-.25,16.53-.25c8.83-.13,15.41-6.98,16.29-16.01Z"/>
          <path class="cls-1" d="M118.66,478.32l-17.98-.06,3.95-5.01.15-32-30.58-.02.06,31.89,4.06,5.18-18.47.02,4.06-5.26v-60.91s-4.06-5.19-4.06-5.19h18.47s-4.02,5.14-4.02,5.14l-.15,25.37,30.57-.02-.02-25.04-4.05-5.46,18.33.02-3.85,5.21-.11,58.38c.52,2.81,1.16,3.56,3.64,7.78Z"/>
          <path class="cls-1" d="M631.92,478.32l-17.99-.05,4.03-4.97.11-32.05-30.58-.03.08,31.83,4.04,5.26h-18.52s4.12-5.21,4.12-5.21v-61.01s-4.1-5.12-4.1-5.12l18.44-.02-3.96,5.2-.14,25.33,30.63-.02-.07-25.1-4.1-5.42,18.37.02-3.85,5.29-.12,58.3c.52,2.81,1.19,3.59,3.61,7.77Z"/>
          <path class="cls-1" d="M271.56,447.33c0-3.38-1.21-4.73-4.07-8.51l18.37-.18-3.95,5.23.16,29.24c-17.94,10.22-43.53,7.83-54.24-10.06-6.3-10.53-6.74-23.15-2.76-34.6,7.76-22.28,33.48-27.69,54.81-17.29.12,3.41.06,6.29-.6,9.91-6.24-7.82-12.68-11.62-21.41-11.26-7.77.33-15.32,4.63-19.33,12.32-6.62,12.67-6.72,28.34,0,40.97,4.62,8.68,13.57,13.63,23.15,12.22l9.81-1.45.07-26.54Z"/>
          <polygon class="cls-1" points="474.76 478.22 478.63 473.5 478.83 454.15 437.53 419 437.55 472.98 441.63 478.29 428.97 478.28 433.2 473.1 433.2 412.06 429.03 407 440.27 406.95 478.75 439.56 478.76 412.16 474.74 406.97 487.31 406.96 483.14 412.13 483.1 472.58 487.23 478.33 474.76 478.22"/>
          <path class="cls-1" d="M336.61,458.75h-32.15s-6.34,14.93-6.34,14.93l3.36,4.69-12.43-.18,4.94-5.4,30.55-68.75,28.31,68.11,5.65,6.1-19.46.08c1.24-2.5,3.24-5.28,2.64-6.78l-5.07-12.79ZM334.85,454.65l-13.83-33.66-14.82,33.93,28.65-.27Z"/>
          <path class="cls-1" d="M782.43,458.7l-32.07.07-4.82,11c-1.35,3.09-1.17,4.45,1.4,8.58l-11.6-.21c3.75-4.7,5.47-7.25,7.51-11.87l27.49-62.26,28.85,69.07c2.03,1.78,2.78,2.48,5.01,5.15l-19.39.08c1.37-2.59,3.32-5.33,2.69-6.9l-5.07-12.71ZM780.82,454.77l-14.05-33.59-14.63,33.63,28.68-.03Z"/>
          <path class="cls-1" d="M158.26,437.39l-17.46-.16v37.36s30.71-.17,30.71-.17c1.74,0,4.49-2.77,7.48-3.99l-1.78,7.93-50.2-.05c.93-2.18,1.73-3.08,3.4-4.66l.03-61.53-3.61-5.16,46.22-.1,2.3,8.01-7.62-4.11-26.95-.08-.02,22.77,17.29-.11,5.26-4.06-.03,11.63-5.02-3.51Z"/>
          <path class="cls-1" d="M554.65,476.74c-10.43,4.99-22.78,2.45-31.19-5.09-1.13-2.84-1.05-7.35.54-10.78,5.36,10.68,14.03,16.65,25.05,13.99,5.43-1.31,8.61-5.53,9.3-10.71s-2.41-9.71-7.6-12.55l-17.36-9.51c-10.91-5.98-13.35-20.7-4.99-30.01,7.71-8.59,20.9-6.97,31.85-1.2.08,3.9.03,6.71-.77,10.25-4.43-5.48-7.14-9.41-12.92-10.97-4.76-1.28-9.83.06-12.57,3.52-2.76,3.48-4.34,9.04-1.59,13.16,1.9,2.85,5.58,4.95,8.63,6.53l14.81,7.69c6.86,3.56,10.5,10.7,10.18,18.06-.3,6.97-3.98,14.07-11.37,17.61Z"/>
          <path class="cls-1" d="M34.74,477.98l-17.46.25,3.8-5.46v-62.11s-13.7.25-13.7.25c-1.8.03-4.51,2.5-7.37,3.98.17-2.54.74-4.9,1.75-7.99l48.79-.03,2.1,7.84c-3.2-1.17-5.92-3.85-7.97-3.87l-13.24-.16v60.78c0,1.47,1.05,2.74,3.31,6.52Z"/>
          <path class="cls-1" d="M513.68,478.25l-18.06.08,3.91-5.36.06-58.37c0-2.53-1.36-3.89-3.86-7.47l18.02-.27-4,4.97-.09,58.67c0,2.77,1.15,3.59,4.03,7.76Z"/>
        </g>
        <g>
          <path class="cls-1" d="M399.5,558.96l-7.33-.32v14.82s3.04,4.62,3.04,4.62h-13.92s2.91-4.33,2.91-4.33l.03-43.79-2.74-4.58,26.99.05c8.95.02,15.55,8.33,15.55,16.51,0,8.78-6.34,15.76-15.72,16.62l11.39,14.33,4.95,4.26c-2.92,1.63-9.69,1.73-12.22-1.53l-12.94-16.66ZM404.21,555.2c6.99-.2,11.3-6.79,11.59-12.3.32-6.12-2.44-12.41-9.09-13.78l-14.5-.62v27.03s12.01-.34,12.01-.34Z"/>
          <path class="cls-1" d="M622.9,578.13l-13.77-.05,2.87-4.32.07-22.8h-21.94s.08,23.07.08,23.07l2.94,4.07-13.94-.06,2.9-4.26.11-43.07-2.92-5.39,13.69.1c-1.15,1.91-2.8,3.9-2.8,4.99l-.07,17.22,21.92.1.06-16.17c0-1.57-1.27-3.6-2.82-6.19l13.7-.16-2.75,4.13-.09,43.72,2.78,5.08Z"/>
          <path class="cls-1" d="M676.62,570.59c-10.27,10.81-28.37,11.06-38.86,1.06-11.25-10.73-10.9-30.25.73-40.54,10.13-8.96,26.89-8.84,36.84.29,10.83,9.94,11.73,28.2,1.29,39.2ZM672.65,564.77c3.72-8.77,3.58-18.53-.26-26.87-3.05-6.62-9.64-10.34-16.36-10.03-6.65.3-12.57,4.31-15.29,10.87-3.55,8.53-3.42,18.41.47,26.77,3.1,6.67,9.37,10.29,16.26,10.06,6.39-.22,12.3-3.97,15.19-10.8Z"/>
          <path class="cls-1" d="M701.51,573.99l2.83,4.03-13.95.1,3.01-4.24v-43.45c0-1.11-1.78-3.23-2.81-5.08l26.73.02c9.23,0,15.92,8.21,15.88,16.6-.04,9.12-7.14,16.68-16.7,16.7l-15.15.02.15,15.28ZM713.08,555.23c6.76-.18,11.35-6.2,11.92-11.65.64-6.11-2.05-12.75-8.67-14.35-4.61-1.11-9.94-.72-14.9-.72v27.02s11.65-.3,11.65-.3Z"/>
          <path class="cls-1" d="M498.97,549.54c-3.5,5.56.9,11.58-3.7,19.4l10.14,8.75c-5.96,1.72-9.81-1.76-14.19-4.44-4.45,3.77-10.06,5.7-16,5.44-7.51-.32-13.22-5.39-14.1-12.33-.88-6.95,3.63-12.93,10.79-15.54-4.17-5.35-5.85-12.03-2.01-17.27,4.46-6.09,16.59-5.03,19.92.51,1.38,2.29,1.51,6.42.3,8.72-2.23,4.21-5.91,6.15-10.6,8.07l13.6,16.06c3.03-6.56,2.4-12.27-3.34-17.16l9.19-.2ZM478.17,548.52c5.55-2.6,7.28-6.46,6.66-11.44-.43-3.44-3.93-5.51-6.98-4.78-2.66.63-4.95,4.1-3.97,7.19,1.04,3.3,2.71,6.49,4.29,9.03ZM488.69,571.4l-15.89-18.22c-3.68,2.56-5.1,6.32-4.85,10.44.2,3.35,1.89,7.42,5.3,9.5,4.84,2.95,11.53,1.77,15.44-1.72Z"/>
          <path class="cls-1" d="M359.65,548.03l-12.37-.08-.15,26.92,21.16-.04c1.73,0,3.89-1.52,7.02-3.04-.19,1.55-.91,4.18-1.75,6.35l-36.87-.05,2.48-4.28.09-43.16-2.79-5.37,34.38-.1,1.67,6.41-5.87-3.03-19.5-.12v16.32s12.28-.05,12.28-.05l4.37-3.13-.08,9.35-4.08-2.9Z"/>
          <path class="cls-1" d="M171.42,563.7l-23.28.02-4.13,9.45,1.38,5-8.56-.27c2.55-3.64,4.04-5.65,5.51-8.97l20.37-45.98,21.13,50.59,4.13,4.44-15.07.17,2.49-4.43-3.97-10.03ZM169.99,560.4l-9.88-24.01-10.55,24.03,20.43-.02Z"/>
          <path class="cls-1" d="M252.77,548.06l-12.48-.08-.02,26.92,23-.13,5.41-3.44-1.63,6.81-37.38-.05,2.61-4.1.05-44.34-2.86-4.3,34.23-.15c.89,1.96,1.5,4.47,1.57,6.37-2.16-1.09-4.46-2.93-5.74-2.94l-19.13-.16-.12,16.24h12.15s4.45-3.17,4.45-3.17l-.04,9.46-4.06-2.96Z"/>
          <path class="cls-1" d="M562,577.76c-7.16,2.32-15.27.68-20.65-4.43-1.72-1.64-1.36-6.5.43-8.33,3.93,8.17,10.79,12.47,19.11,9.79,3.31-1.07,5.42-4.48,5.66-7.78.25-3.29-1.84-6.43-5.05-8.22l-13.28-7.37c-5.14-2.86-7.55-8.43-7.22-13.67s3.5-10.37,9.22-12.25c5.99-1.98,12.11-.29,17.77,2.74.57,2.43.41,5.69-.59,7.87-3.86-5.15-7.01-8.56-12.8-8.32-3.85.16-6.7,3.36-7.53,6.67-1.04,4.15,1.24,7.21,5.2,9.26l11.81,6.13c5.7,2.96,8.86,8.56,8.42,14.56-.41,5.65-3.95,11.22-10.5,13.34Z"/>
          <path class="cls-1" d="M209.56,578.16l-13.5-.13,2.97-4.03.03-45.49-9.21.08c-1.44.01-3.58,1.6-6.27,2.95l1.13-6.29,36.47-.03,1.65,6.6-5.65-3.2-10.14-.18-.07,43.82,2.57,5.9Z"/>
          <path class="cls-1" d="M308.34,572.04c-.44,2.09-1.2,4.45-2.11,6.14l-31.55-.1,2.62-4.21.03-44.18-2.95-4.32,13.7-.03c-1.55,2.69-2.8,4.58-2.8,6.15l.05,43.42,16.9-.2c1.24-.01,3.14-1.47,6.12-2.66Z"/>
          <path class="cls-1" d="M328.17,578.12l-13.26-.05,3-4.1.04-44.28-2.96-4.33,13.6-.04c-1.58,2.7-2.85,4.62-2.85,6.15l.03,39.95c0,1.83.76,3.15,2.4,6.7Z"/>
        </g>
      </g>
      <g>
        <path class="cls-1" d="M424.37,338.2c-86.35-5.43-155.34-75.86-158.34-162.24v-13.86C269.36,74.92,339.47,5,425.54.26c102.14-5.63,185.83,79.63,178.44,181.37-6.67,91.78-86.39,162.44-179.6,156.57ZM268.87,177.2c3.16,69.82,50.72,129.43,114.32,150.07,70.08,22.74,143.94-2.62,185.93-59.58,43.35-58.79,42.86-138.58.08-196.75C539.63,30.72,493.71,6.03,444.94,3.21c-91.72-5.29-170.69,64.4-176.15,157.72l.08,16.26Z"/>
        <path class="cls-1" d="M438.04,328.35c-94,1.72-168.83-78.05-161.69-171.25,6.01-78.39,68.93-141.04,147.48-146.58,89.94-6.34,167.14,63.32,170.36,153.13,3.16,88.32-66.96,163.07-156.15,164.71ZM427.7,19.4c-83.36,4.14-146.88,75.57-142.52,157.65,4.38,82.44,74.83,146.15,157.32,142.07,82.74-4.09,146.82-74.85,142.52-157.73-4.24-81.64-74.24-146.11-157.32-141.99Z"/>
        <path class="cls-1" d="M403.34,160.69c-11.86-1.73-15.25,8.11-21.57,7.16l3.64-12.92,17.84-.02.06-23.83c0-3.66-7.95-9.07-3.57-9.07l45.83-.03c6.14,0,11.67,3.23,15.03,7.69,6.16,8.14,4.17,18.29-4.31,24.7l41.42.07c1.64,5.18-4.61,3.6-4.61,11.9l.04,60.8c0,4.54,4.86,4.76,5.1,8.17.07.98-2.26,1.51-3.48,1.96-13.2,4.86-25.98,9.56-40.16,11.07-16.31,1.73-32.24-.28-47.57-5.48-31.5-10.68-52.32-38.09-55.25-71.12-2.74-30.87,11.38-59.85,38.23-75.54,23.96-14,52.6-16.07,78.48-5.84,4.74,1.87,7.98,1.76,13.65-.38l-.15,19.73c-1.98.32-3.76-.68-4.72-2-5.32-7.28-12.77-11.83-21.32-14.64-18.95-6.21-39.2-3.1-55.7,8.15-36.54,24.91-41.57,79.82-11.18,113.61,17.64,19.62,43.44,29.39,69.78,26.57,10.47-1.12,18.55-6.04,18.54-16.66l-.05-63.43h-14.33c6.91,6.13,11.23,14.31,10.44,23.87-1.18,14.32-13.06,26.23-27.83,26.29l-46.41.19c-.75-2.92,1.19-4.79,3.92-6.3l.19-44.66ZM439.59,154.31c7.15-1.04,10.99-7.78,10.84-13.52-.15-5.78-3.84-12.45-10.49-12.6l-22.37-.5.06,27.25c7.63-.25,14.75.41,21.96-.63ZM452.06,200.12c7-6.48,8.71-16.34,5.33-25.07-2.8-7.25-10.52-14.06-19.57-14.16l-20.24-.22.06,45.21,20.02-.16c4.92-.04,10.55-2.02,14.41-5.6Z"/>
        <path class="cls-1" d="M537.03,233l-10.67,2.36c2.28-9.07,13.17-2.98,14.6-9.65l-7.68-3.08,3.11-5.06c1.21,1.27,2.77,2.99,3.74,3.52l15.78,8.66-6.31,10.68c-2.03,3.44-6.96,3.93-9.68,2.31-3.48-2.07-4.36-5.67-2.89-9.75ZM547.84,238.87c1.63-1.7,3.22-4.45,4.11-6.31l-9.43-5.38c-1.28,2.09-2.45,4.17-3.11,6.81-.4,1.6,1.55,4.65,2.93,5.29,1.23.57,4.56.57,5.51-.41Z"/>
        <path class="cls-1" d="M490.86,72.77c-9.07-1.69-4.3-11.62-10.48-13.79l-2.88,7.92-4.98-2.29,4.83-8.78,4.9-12.3,11.82,5.81c3.48,1.71,4.32,6.64,2.6,9.74-1.57,2.83-4.91,4.22-9.17,3.33l3.37,10.35ZM487.35,59.8c1.57.61,4.77-1.22,5.55-2.63.78-1.41.67-5.67-.76-6.42l-6.39-3.34-4.69,9.96,6.3,2.44Z"/>
        <path class="cls-1" d="M439.81,58.3l-14.05.23c.35-.89,1.28-2.76,1.27-3.64l-.18-19.19,11.82-.36c1.44-.04,4.08,1.66,4.64,2.91.77,1.72-.32,4.65-1.77,6.12,2.53,1.4,4.72,4.22,4.55,7.24-.15,2.66-2.86,6.63-6.28,6.69ZM437.15,43.52c1.17-.04,2.9-2.49,2.65-3.52s-2.16-2.69-3.25-2.7l-5.15-.05v6.47s5.75-.2,5.75-.2ZM438.83,55.95c1.88-.19,3.39-4.32,2.95-5.92-.49-1.8-2.98-4.19-4.79-4.24l-5.63-.16-.15,11.1,7.62-.78Z"/>
        <path class="cls-1" d="M339.11,111.84l-2.86,4.44-6.3-5.22-12.78-7.8,7.56-11.03c1.81-2.64,7.02-2.5,8.72-1.58,3.95,2.28,4.6,5.89,2.99,10.42l10.48-1.57c-2.46,8.45-11.88,2.24-15.01,8.13l7.2,4.21ZM330.61,106.52l3.29-6.05c1.07-1.98-.94-5.46-2.79-6.3-1.63-.74-5.31-.1-6.33,1.31l-3.5,4.83,9.33,6.22Z"/>
        <path class="cls-1" d="M390.87,66.61l-5.5-17.93c-.24-.79-1.53-2.3-2.39-3.43l5.76-1.98,1.8,9.42,9.87-3-3.7-8.99,4.92-1.43,5.74,18.86c.21.68,2.42,2.41,1.92,2.59l-3.29,1.22-2.31.86c-.53.2.05-2.18-.13-2.76l-2.63-8.59-9.3,3.01c1.11,3.88,2.42,7.28,4.31,10.99l-5.08,1.17Z"/>
        <path class="cls-1" d="M315.53,225.81c-.84.3-2.54,1.87-3.03,2.28l-2.17-5.34,9.24-2.53-3.73-9.72-8.61,4.28-1.73-4.75,14.19-5.12,7.08-3.63,1.96,5.09-11.03,3.54,3.53,9.37,10.77-4.83,1.41,4.93-17.86,6.44Z"/>
        <path class="cls-1" d="M526.63,84.08l-6.93,6.28-.46,6.67-3.58-6.31c-2.34-.9-6.08-2.4-7.63-4.61-1.99-2.84-1.73-6.12.31-8.67,1.66-2.07,5.48-2.37,8.15-1.77.76-2.22,2.17-5.11,3.71-5.82,1.81-.83,5.17-.02,6.51,1.34,1.65,1.68,2.91,4.93.93,7.02-1.83,1.93-5.28,1.77-8.08,1.07l-.31,8.7c2.75-1.09,3.57-3.19,4.03-6.44l3.35,2.53ZM526,74.35c.05-.86-.95-2.3-1.73-2.5-.62-.16-2.5.5-2.73,1.09l-1.7,4.3c2.64,1.33,6.05-1.12,6.16-2.9ZM516.03,77.43c-3.23.21-5.63,2.52-5.89,5.76-.17,2.17,2.63,4.72,5.54,5.41l.34-11.16Z"/>
        <path class="cls-1" d="M365.79,283.72l-2.64-1.89c-.43-.31,1.68-1.36,1.99-1.82l7.55-11.11-9.51,3.19-.84-10.87-7.91,11.44c-.3.43-.59,2.75-1.01,2.47l-2.4-1.6c-.55-.37,1.01-1.68,1.64-2.15l10.04-15.3,3.6,2.25.7,10.14,9.52-3.43,3.01,2.6c.51.44-2.01,1.64-2.39,2.2l-8.36,12.33c-.32.48-.91,2.28-1.03,2.7s-1.55-.88-1.95-1.17Z"/>
        <path class="cls-1" d="M434.92,301.98l-10.96.26.99-9.9-.53-11.41,9.49.34c5.77.21,9.68,4.67,9.99,9.77s-2.87,10.79-8.99,10.93ZM436.97,284.91c-1.79-1.43-5.01-1.7-7.8-1.61l-.18,16.89c3.04.1,6.27-.19,7.9-1.61,3.46-2.98,3.52-10.94.08-13.68Z"/>
        <path class="cls-1" d="M463.78,299.36c-6.89,1.92-12.95-1.45-14.45-7.75-1.54-6.47,2.78-12.25,9.8-13.43,6.3-1.05,11.72,2.15,13.14,8.2,1.32,5.65-2.02,11.18-8.48,12.98ZM468.08,288.18c-.66-5.26-4.62-8.75-8.93-7.87-4.8.98-6.58,5.7-5.52,10.4,1.03,4.55,4.39,7.54,8.65,6.81,4.27-.73,6.45-4.22,5.8-9.34Z"/>
        <path class="cls-1" d="M312.97,146.24c-1.53-.02-.96-4.9.51-4.8l10.14,2.08c1.56,2.31,1.24,7.6.38,10.81-1.93,7.16-9.07,9.82-15.13,7.81-6.97-2.31-9.73-10.19-6.75-16.98l1.5-3.42c.31-.72,2.34-.32,3.8.29-2.86,2.71-4.87,5.44-4.32,9.04s3.78,6.12,7.7,7.04c2.83.66,6.72.16,8.77-1.32,2.87-2.08,3.74-5.41,3.32-9.32l-9.91-1.23Z"/>
        <path class="cls-1" d="M351.85,94.95l-2.63,2.25c-3.52-4.98-6.5-8.58-10.73-11.89l-5.46-4.26c-.21-.04,2.37-2.45,3.51-2.61l14.92-2.06-7.09-6.65,2.34-2.17c.44-.4.94,1.22,1.15,2.11l12.92,13.1c.82.34,2.25,1.18,1.81,1.57l-2.38,2.13-4.4-6.11-17.28,2.14,2.2,2.41c3.54,3.89,7.02,7.2,11.11,10.04Z"/>
        <path class="cls-1" d="M415.38,298.06c-.13.61.74,3.38.15,3.19l-3.79-1.2c.72-.91,2.95-5.2,1.85-6.53l-9.03-10.93-2.78,12.48-.42,3.01c-.1.74-2.36-.31-3.26-.67-.75-.31.77-1.82,1.47-2.51l3.32-17.89c1.37.43,3.68,1.42,4.45,2.33l7.63,9.09,1.54-8.53,3.44,1.02c.55.16-1.34,1.81-1.47,2.4l-3.11,14.75Z"/>
        <path class="cls-1" d="M462.63,55.77l-9.76-2.23-3.24,5.34-2.96-.69,16.45-21,6.1,26.02-6.18-1.37c1.1-1.37,1.11-5.71-.41-6.06ZM462.79,53.6l-2.24-9.81-6.36,8.3,8.6,1.51Z"/>
        <path class="cls-1" d="M558.23,159.94l.04-7.62-11.37,1.49,1.5,10.13c.07.45.97,1.77,1.27,2.11s-1.92.34-2.99.29l-1.93-17.01,17.84-1.56,5.04-1.64,1.46,15.92-2.09.44-.44-11.08-6.83.71,1.6,7.45-3.11.35Z"/>
        <path class="cls-1" d="M322.22,133.33l4.46,4.89c.19.2-.59,1.93-.82,1.78l-1.43-.91-16.61-18.02,22.9-1.57,4.02-.87-2.73,6.59c-1.07-1.62-5.36-2.13-6.02-.6l-3.76,8.7ZM323.78,123.95l-10.14.8,7.52,7.44,2.62-8.24Z"/>
        <path class="cls-1" d="M302.21,186.55l1.99,9.99,6.48-1.18-2.06-7.28,3.28-.49.3,7.5,11.11-1.84-2-10.46c-.4-.38-1.82-1.69-1.36-1.77l2.99-.54,3.09,17.58c-1.49-.2-3.61-.48-4.61-.3l-13.39,2.35-4.91,1.77-2.27-16.14c1.75-.95,2.95-.56,1.36.82Z"/>
        <path class="cls-1" d="M555.23,207.7l-1.5,7.57-2.97-1.26,2.79-7.08-10.48-3.33-3.11,9.38.12,2.37c.02.32-.56.3-.79.09-.37-.34-1.12-2.15-.92-2.77l4.74-14.47,3.58,2.1,17.92,5.53-4.9,14.65-2.43-.51c-.3-.06,1.43-1.09,1.52-1.38l2.78-9-6.33-1.89Z"/>
        <path class="cls-1" d="M537.02,125.02l4.66-4.5-4.61-9.03c-1.46-.67-4.04-.09-6.36.91l-1.69-3.25,27.15-.43-16.62,21.14-2.52-4.83ZM549.29,110.76l-10.28.35,4.1,7.91,6.18-8.26Z"/>
        <path class="cls-1" d="M390.49,283.46l-5.86-3.61-3.89,9.02,7.89,3.43c.3.13,2.23.15,2.56.19s.29.43.08.66c-.33.37-2.29,1.2-2.73,1.03l-13.06-5.23,4.1-7.66,4.21-11.93,13.47,6.21-.72,2.43c-.15.51-1.43-1.06-1.75-1.64l-7.38-3.15-2.13,5.3,6.5,1.85c.06-.14-.86,2.08-1.29,3.11Z"/>
        <path class="cls-1" d="M383.99,69.98c-3.79,4.85-11.28,4.45-11.43,3.19l-.35-3.05c4.21,2.71,8.75,1.49,10.25-1.91.3-.68.21-3.08-.41-3.44s-2.1-.7-2.9-.75l-9.84-.55c-2.88-.16-4.36-4.85-3.7-7.06,1.88-6.3,9.96-5.93,10.44-4.88.28.61,1.04,2.3.85,1.88h-6.76c-1.6,0-2.65,5.03-.98,5.58,5.43,1.79,12.3-1.64,15.36,3.34,1.19,1.94,1.19,5.42-.55,7.65Z"/>
        <path class="cls-1" d="M480.1,294.5l2.21-21.76-8.39,4.43-.33-2.83,13.73-5.87-2.43,21.74,7.36-3.14c.35-.15,1.42-1.43,1.66-1.73s1.04.77,1.19,1.13c.22.53-.47,1.92-1.07,2.17l-13.92,5.86Z"/>
        <path class="cls-1" d="M510.92,271.74l-7.06,4.96c-.99.7.26,3.98,1.46,5.33l-3.13,2.04-3.85-24.35,21.35,12.31-4.83,3.5c-.67-1.07-2.71-3.39-3.94-3.78ZM508.92,270.35l-7.49-4.19,1.52,8.2,5.97-4.01Z"/>
        <path class="cls-1" d="M562.36,132.77l-15.34,4.7c-1.14.35-2.76,1.37-4.68,2.53l-1.68-5.21,20.18-5.83-2.22-6.61c-.34.03,1.64-.5,1.81-.17l1.12,2.18,3.7,11.56c.3.93-.65,3.08-1.2,3.56l-1.69-6.68Z"/>
        <path class="cls-1" d="M325.65,250.12l-9.15-14.4,1.57-1.77,3.25,5.72,15.72-10.01c.34-.5,1.45-2.12,1.75-1.68l1.52,2.17c.33.47,1.96,2.08,1.42,2.3l-3.09,1.27-15.09,9.43,4.27,5.73c1.21-.68-.39.22-2.16,1.23Z"/>
        <path class="cls-1" d="M565.12,175.69l-17.04-.94-.2,8.55c1.57,1.63-.26,2.62-2.11,1.55l.71-15.58,3.58,1.46,19.52.67-.32,5.69c-1.23-.49-3.3-1.37-4.14-1.42Z"/>
        <path class="cls-1" d="M566.43,198.81c-.67-.42-2.49-1.7-3.23-1.84l-16.32-3.16c-.46-.09-2.87,1.14-2.83.68l.23-2.94.73-3.28c.13-.57,1.97,1.43,2.71,1.56l19.61,3.32-.9,5.67Z"/>
        <path class="cls-1" d="M370.48,78.2c.22.27-2.37,2.09-3.61,2.64l-11.6-16c-.38-.53-2.8-1.37-2.44-1.66l2.23-1.8,2.14-1.73c.58-.47,1.01,2.27,1.55,2.98l11.74,15.57Z"/>
        <path class="cls-1" d="M346.75,251.62l2.2,8.29c-3.15-1.24-5.2-1.95-7.16-3.48-1.31-1.19-1.94-5.12-2.46-7.67l7.42,2.85Z"/>
        <path class="cls-1" d="M521.7,260.93l-2.55.85,1.82-7.75,7.01-3.64c.33,5.68-1.34,8.88-6.28,10.53Z"/>
      </g>
    </g>
  </g>
</svg>